# xmcd
#
# Track frame offsets:
#	150
#	15768
#	33086
#	46735
#	57630
#	72007
#	82085
#	97322
#	113485
#	129106
#	144016
#	160082
#
# Disc length: 2342 seconds
#
# Revision: 1
# Processed by: cddbd v1.5.2PL0 Copyright (c) Steve Scherf et al.
# Submitted via: audiograbber 1.83.01
#
DISCID=8909240c
DTITLE=Worried Man and Worried Boy - Worried Man and Worried Boy
DYEAR=2014
DGENRE=Blues
TTITLE0=Flohzirkusdirektor
TTITLE1=Zeitschriftenannoncen
TTITLE2=Oberstleutnant
TTITLE3=Glaubst I bin bled
TTITLE4=Grezn
TTITLE5=Wea ka Messa hot
TTITLE6=Konzert
TTITLE7=I Wü owa I trau mi net
TTITLE8=Der schönste Mann von Wien
TTITLE9=Trottl kannst mi haßn
TTITLE10=Da Maun  im Frack
TTITLE11=Owa mi loss bitte heit in Rua
EXTD=
EXTT0=
EXTT1=
EXTT2=
EXTT3=
EXTT4=
EXTT5=
EXTT6=
EXTT7=
EXTT8=
EXTT9=
EXTT10=
EXTT11=
PLAYORDER=
